<svg class="svg-icon" style="width:1em;height:1em;vertical-align:middle" viewBox="0 0 1024 1024" xmlns="http://www.w3.org/2000/svg" fill="currentColor" overflow="hidden"><path d="M544 896h64v64h-64v-64zM416 416V64H64v352h64v64h64v-64h224zm-288-64V128h224v224H128z"/><path d="M192 192h96v96h-96v-96zM608 64v352h352V64H608zm288 288H672V128h224v224z"/><path d="M736 192h96v96h-96v-96zM192 736h96v96h-96v-96zM64 480h64v64H64v-64zM192 480h64v64h-64v-64z"/><path d="M256 608H64v352h352V608h-96v-64h-64v64zm96 64v224H128V672h224zM480 96h64v96h-64V96zM480 256h64v64h-64v-64zM672 480H544v-96h-64v96H320v64h288v64h64v-64zM672 608h64v64h-64v-64zM480 608h64v96h-64v-96zM480 768h64v128h-64V768zM608 704h64v192h-64V704zM800 608h160v64H800v-64zM896 480h64v64h-64v-64zM736 480h128v64H736v-64zM736 704h64v64h-64v-64zM896 768h-32v64h64v-64h32v-64h-64zM736 832h64v64h-64v-64zM800 896h160v64H800v-64z"/></svg>